<?xml version="1.0" standalone="no"?>
<!DOCTYPE svg PUBLIC "-//W3C//DTD SVG 20010904//EN"
 "http://www.w3.org/TR/2001/REC-SVG-20010904/DTD/svg10.dtd">
<svg version="1.0" xmlns="http://www.w3.org/2000/svg"
 width="1024.000000pt" height="1024.000000pt" viewBox="0 0 1024.000000 1024.000000"
 preserveAspectRatio="xMidYMid meet">
<metadata>
Created by potrace 1.11, written by Peter Selinger 2001-2013
</metadata>
<g transform="translate(0.000000,1024.000000) scale(0.100000,-0.100000)"
fill="#000000" stroke="none">
<path d="M3972 9694 c-41 -11 -103 -70 -714 -680 -368 -368 -683 -691 -701
-719 l-32 -49 -3 -293 -3 -293 -307 0 c-297 0 -309 -1 -354 -23 -37 -18 -117
-99 -400 -408 -194 -212 -427 -466 -518 -564 -489 -530 -564 -613 -583 -650
l-22 -40 -3 -1139 c-2 -1017 -1 -1145 13 -1187 11 -34 40 -73 93 -131 42 -46
225 -245 407 -443 181 -198 364 -396 405 -440 41 -45 125 -135 185 -201 61
-66 172 -188 248 -271 97 -105 151 -156 180 -169 39 -18 79 -19 692 -19 646 0
650 0 697 22 40 18 48 27 58 64 9 31 12 750 12 2750 0 2425 -2 2714 -16 2762
-21 74 -37 80 -213 85 l-143 4 0 196 c0 184 2 200 23 242 16 33 178 201 577
597 l555 551 1005 3 c704 2 1011 0 1024 -8 10 -5 275 -266 587 -579 l569 -569
0 -236 0 -237 -102 -4 c-123 -5 -151 -17 -175 -72 -17 -39 -18 -164 -21 -2736
-2 -1960 0 -2713 9 -2763 10 -65 12 -68 52 -90 l42 -22 658 -3 659 -3 44 22
c31 16 100 83 237 233 418 457 890 971 1066 1161 110 119 192 216 203 242 18
40 18 90 16 1200 -3 1066 -4 1160 -20 1188 -13 23 -694 772 -1036 1140 -26 28
-97 104 -157 170 -109 119 -209 227 -253 272 -12 13 -41 33 -65 43 -39 18 -68
20 -385 20 l-344 0 4 313 c3 278 1 315 -14 342 -24 44 -1367 1380 -1408 1401
-40 22 -59 22 -1459 26 -587 2 -838 0 -869 -8z"/>
<path d="M4770 7719 c-287 -6 -576 -20 -695 -34 -218 -26 -357 -51 -402 -72
l-33 -15 0 -958 0 -957 23 -34 c12 -19 38 -42 57 -51 33 -17 121 -18 1415 -18
1324 0 1382 1 1415 19 19 10 44 30 55 45 20 27 20 40 23 987 l2 959 -31 19
c-85 52 -524 98 -1019 107 -157 2 -330 6 -385 7 -55 1 -246 -1 -425 -4z"/>
<path d="M3729 5267 c-19 -12 -45 -43 -59 -67 l-25 -45 -3 -1100 c-2 -605 0
-1119 3 -1141 8 -58 52 -121 101 -144 40 -20 67 -20 1387 -20 926 0 1354 3
1374 11 44 16 81 58 100 113 17 48 18 123 18 1151 0 1230 4 1153 -71 1226
l-35 34 -1378 3 -1378 2 -34 -23z"/>
<path d="M3677 2429 c-68 -36 -67 -22 -67 -656 0 -635 -2 -617 70 -655 33 -17
81 -18 936 -18 974 0 960 -1 1127 54 302 100 570 343 730 661 19 39 54 127 78
195 37 108 43 139 47 231 5 125 -7 158 -68 189 -39 20 -56 20 -1427 20 -1373
-1 -1388 -1 -1426 -21z"/>
<path d="M2076 1688 c-33 -46 -12 -149 55 -279 48 -92 136 -184 218 -228 103
-55 156 -61 549 -61 l353 0 24 25 25 24 0 248 c0 209 -2 252 -16 271 l-15 22
-589 0 -589 0 -15 -22z"/>
</g>
</svg>
